<svg width="1080" height="400" viewBox="0 0 1080 400" fill="none" xmlns="http://www.w3.org/2000/svg">
<mask id="mask0_2_50" style="mask-type:alpha" maskUnits="userSpaceOnUse" x="0" y="0" width="1080" height="400">
<rect width="1080" height="400" fill="#D9D9D9"/>
</mask>
<g mask="url(#mask0_2_50)">
<mask id="mask1_2_50" style="mask-type:luminance" maskUnits="userSpaceOnUse" x="0" y="-2" width="1920" height="403">
<path d="M1920 -2H0V401H1920V-2Z" fill="white"/>
</mask>
<g mask="url(#mask1_2_50)">
<path d="M1920 -2H0V401H1920V-2Z" fill="white"/>
<g opacity="0.5">
<path d="M1115.24 -1C1111.81 178.056 1021.77 346.267 681.822 317.557C323.451 287.291 150.126 486.814 63.2398 688.995H62.813C149.734 486.682 323.175 286.971 681.895 317.273C1021.43 345.95 1111.38 177.911 1114.81 -1H1115.24Z" fill="black" fill-opacity="0.6"/>
<path d="M1101.95 -1C1117.61 170.079 1040.32 329.367 684.64 308.592C296.688 285.93 134.22 487.198 61.0628 688.995H60.6326C133.832 487.065 296.387 285.625 684.71 308.308C1039.94 329.06 1117.16 169.947 1101.53 -1H1101.95Z" fill="black" fill-opacity="0.6"/>
<path d="M1091.2 -1C1124.32 162.143 1057.63 312.744 687.463 299.626C269.031 284.797 118.921 487.607 59.9893 688.995H59.5626C118.512 487.472 268.705 284.499 687.502 299.34C1057.22 312.444 1123.84 161.998 1090.76 -1H1091.2Z" fill="black" fill-opacity="0.6"/>
<path d="M1083.1 -1C1131.85 154.225 1073.58 296.42 690.292 290.66C240.421 283.895 104.243 488.026 60.0763 688.995H59.6636C103.845 487.893 240.092 283.609 690.324 290.374C1073.14 296.126 1131.36 154.079 1082.65 -1H1083.1Z" fill="black" fill-opacity="0.6"/>
<path d="M1077.77 -1C1140.19 146.334 1088.08 280.417 693.1 281.695C210.804 283.254 90.3108 488.445 61.4116 688.995H60.9884C89.8945 488.31 210.451 282.97 693.118 281.408C1087.6 280.133 1139.64 146.197 1077.28 -1H1077.77Z" fill="black" fill-opacity="0.6"/>
<path d="M1075.17 -1C1149.1 138.502 1100.99 264.764 695.917 272.729C180.133 282.871 77.2054 488.842 64.036 688.995H63.6128C76.7996 488.707 179.772 282.594 695.917 272.443C1100.48 264.492 1148.54 138.371 1074.67 -1H1075.17Z" fill="black" fill-opacity="0.6"/>
<path d="M1075.5 -1C1158.64 130.745 1112.25 249.485 698.734 263.763C148.359 282.764 65.0969 489.2 68.0561 688.995H67.6328C64.6597 489.065 147.985 282.492 698.713 263.477C1111.71 249.218 1158.03 130.613 1074.97 -1H1075.5Z" fill="black" fill-opacity="0.6"/>
<path d="M1078.77 -1C1168.63 123.083 1121.71 234.614 701.548 254.79C145.668 281.498 61.7795 468.656 71.2027 658.085C71.718 668.391 72.4876 678.694 73.5113 688.995H73.088C72.0853 678.71 71.317 668.413 70.783 658.104C61.3388 468.533 145.287 281.231 701.52 254.511C1121.13 234.356 1167.98 122.955 1078.23 -1H1078.77Z" fill="black" fill-opacity="0.6"/>
<path d="M1084.83 -1C1178.73 115.533 1129.23 220.182 704.368 245.829C146.526 279.506 58.4327 448.349 72.1197 626.363C73.7217 647.186 76.7159 668.127 80.5145 688.995H80.0878C76.2926 668.135 73.302 647.198 71.693 626.387C57.9989 448.23 146.148 279.241 704.344 245.546C1128.62 219.933 1178.05 115.419 1084.25 -1H1084.83Z" fill="black" fill-opacity="0.6"/>
<path d="M1093.72 -1C1188.84 108.126 1134.69 206.226 707.186 236.864C147.13 277.002 54.1854 430.548 71.1849 597.637C74.256 627.842 80.9229 658.492 89.0728 688.995H88.6391C80.4961 658.504 73.8327 627.866 70.7616 597.658C53.7446 430.427 146.759 276.742 707.155 236.57C1134.06 205.984 1188.13 108.006 1093.1 -1H1093.72Z" fill="black" fill-opacity="0.6"/>
<path d="M1105.29 -1C1198.73 100.888 1137.98 192.776 709.999 227.898C147.291 274.075 49.1667 414.862 68.7161 571.729C73.5151 610.233 85.4007 649.709 99.2487 688.995H98.8115C84.974 649.716 73.0954 610.263 68.2963 571.765C48.7294 414.748 146.907 273.822 709.964 227.614C1137.34 192.542 1197.98 100.772 1104.64 -1H1105.29Z" fill="black" fill-opacity="0.6"/>
<path d="M1119.06 -1C1207.82 93.8507 1138.95 179.873 712.82 218.932C146.953 270.798 43.5118 400.932 64.999 548.36C71.6798 594.173 90.4178 641.671 111.083 688.995H110.639C89.97 641.682 71.2461 594.209 64.5687 548.398C43.057 400.813 146.551 270.547 712.764 218.649C1138.28 179.648 1207.04 93.7371 1118.36 -1H1119.06Z" fill="black" fill-opacity="0.6"/>
<path d="M1134.94 -1C1216.09 87.0478 1137.58 167.542 715.635 209.964C146.089 267.227 37.2954 388.447 60.2412 527.227C68.8844 579.479 96.192 634.229 124.622 688.995H124.168C95.7513 634.25 68.4646 579.521 59.8075 527.27C36.8477 388.332 145.711 266.981 715.586 209.683C1136.88 167.325 1215.28 86.9413 1134.2 -1H1134.94Z" fill="black" fill-opacity="0.6"/>
<path d="M1152.1 -1C1222.8 80.5146 1133.7 155.822 718.448 200.999C144.715 263.418 30.5944 377.153 54.621 508.044C64.8312 563.651 99.9775 622.39 135.421 681.596L139.835 688.995H139.37L135.015 681.712C99.5752 622.492 64.4184 563.748 54.2153 508.089C30.1606 377.04 144.334 263.183 718.409 200.715C1132.99 155.612 1221.96 80.4104 1151.34 -1H1152.1Z" fill="black" fill-opacity="0.6"/>
<path d="M1170.01 -1C1227.63 74.289 1127.33 144.739 721.263 192.033C142.861 259.4 23.4797 366.839 48.2794 490.546C59.3395 545.71 99.061 604.125 139.548 663.653C145.287 672.08 151.009 680.527 156.712 688.995H156.244C150.589 680.571 144.898 672.167 139.171 663.781C98.6692 604.227 58.9373 545.798 47.8771 490.596C23.0424 366.725 142.48 259.156 721.211 191.751C1126.6 144.536 1226.76 74.1872 1169.2 -1H1170.01Z" fill="black" fill-opacity="0.6"/>
<path d="M1187.81 -1C1230.13 68.3994 1118.45 134.309 724.077 183.067C140.564 255.209 15.9921 357.336 41.3444 474.505C53.1391 529.021 97.3763 586.807 142.953 646.341C153.768 660.468 164.64 674.694 175.207 688.995H174.738C164.22 674.739 153.37 660.563 142.589 646.481C96.995 586.923 52.7403 529.116 40.9351 474.557C15.5478 357.223 140.179 254.97 724.024 182.786C1117.72 134.112 1229.22 68.3024 1186.96 -1H1187.81Z" fill="black" fill-opacity="0.6"/>
<path d="M1204.37 -1C1229.64 62.8743 1107.17 124.536 726.891 174.102C137.855 250.874 8.18275 348.505 33.8954 459.723C46.3163 513.437 94.9817 570.357 145.658 629.619C162.375 649.167 179.308 668.972 195.23 689H194.744C178.856 669.022 161.969 649.268 145.295 629.771C94.5969 570.487 45.9105 513.555 33.4792 459.782C7.72803 348.401 137.466 250.642 726.828 173.825C1106.44 124.342 1228.72 62.7796 1203.49 -1H1204.37Z" fill="black" fill-opacity="0.6"/>
<path d="M1218.94 -1C1226.1 57.7348 1093.64 115.419 729.709 165.134C134.789 246.412 0.0838432 340.235 26.0134 446.03C38.9554 498.856 91.9546 554.688 147.71 613.429C171.146 638.107 195.039 663.298 216.67 688.995H216.173C194.581 663.352 170.726 638.216 147.353 613.59C91.5734 554.825 38.5706 498.97 25.5972 446.087C-0.374372 340.129 134.38 246.18 729.642 164.854C1092.92 115.223 1225.16 57.6425 1218.03 -1H1218.94Z" fill="black" fill-opacity="0.6"/>
<path d="M1230.24 -1C1219.05 52.9786 1078.11 106.915 732.522 156.168C131.366 241.847 -8.27788 332.446 17.7566 433.278C31.1463 485.139 88.35 539.726 149.146 597.744C180.056 627.236 211.89 657.628 239.373 688.995H238.872C211.425 657.69 179.651 627.36 148.796 597.914C87.9722 539.87 30.7476 485.262 17.3369 433.34C-8.73959 332.337 130.971 241.613 732.449 155.882C1077.38 106.728 1218.12 52.8887 1229.39 -1H1230.24Z" fill="black" fill-opacity="0.6"/>
<path d="M1237.41 -1C1208.32 48.6082 1060.89 98.995 735.341 147.202C127.658 237.186 -16.8653 325.051 9.18309 421.348C22.9366 472.189 84.2223 525.405 150.006 582.526C189.157 616.524 229.9 651.904 263.168 688.995H262.668C229.438 651.971 188.759 616.65 149.667 582.709C83.855 525.562 22.5379 472.319 8.76684 421.412C-17.327 324.945 127.253 236.956 735.268 146.928C1060.16 98.813 1207.22 48.5183 1236.32 -1H1237.41Z" fill="black" fill-opacity="0.6"/>
<path d="M1239.33 -1C1193.69 44.5974 1042.33 91.6004 738.15 138.237C123.65 232.448 -25.6695 317.997 0.32302 410.134C14.3738 459.927 79.612 511.672 150.314 567.744C198.423 605.905 249.047 646.067 287.814 688.995H287.303C248.575 646.14 198.028 606.037 149.989 567.936C79.2482 511.833 13.975 460.062 -0.0932231 410.198C-26.1347 317.893 123.244 232.219 738.073 137.957C1041.61 91.4206 1192.65 44.5122 1238.29 -1H1239.33Z" fill="black" fill-opacity="0.6"/>
<path d="M1236.56 -1C1176.22 40.9108 1022.81 84.6579 740.967 129.269C119.401 227.638 -34.6611 311.232 -8.7771 399.543C5.50807 448.273 74.5694 498.468 150.112 553.372C207.855 595.34 269.357 640.064 313.111 688.995H312.597C268.874 640.142 207.459 595.482 149.794 553.573C74.2126 498.636 5.1163 448.415 -9.18986 399.604C-35.1298 311.131 118.988 227.413 740.887 128.992C1022.1 84.4875 1175.14 40.828 1235.44 -1H1236.56Z" fill="black" fill-opacity="0.6"/>
<path d="M1227.66 -1C1155.25 37.5105 1002.78 78.1034 743.78 120.303C114.928 222.77 -43.8213 304.718 -18.0912 389.503C-3.62419 437.164 69.1239 485.752 149.42 539.383C217.415 584.798 290.81 633.834 338.849 688.995H338.331C290.32 633.916 217.03 584.947 149.119 539.589C68.7741 485.927 -4.01595 437.313 -18.5039 389.569C-44.2865 304.621 114.501 222.541 743.696 120.024C1002.07 77.9259 1154.28 37.4254 1226.6 -1H1227.66Z" fill="black" fill-opacity="0.6"/>
<path d="M1213.46 -1C1131.88 34.3374 982.57 71.8423 746.596 111.337C110.213 217.846 -53.143 298.426 -27.5947 379.948C-12.9949 426.542 63.3071 473.483 148.27 525.751C227.097 574.245 313.347 627.329 364.768 688.995H364.254C312.836 627.419 226.709 574.401 147.979 525.961C62.9818 473.668 -13.3795 426.693 -28.0075 380.012C-53.6047 298.329 109.804 217.624 746.508 111.06C981.881 71.6672 1130.81 34.257 1212.28 -1H1213.46Z" fill="black" fill-opacity="0.6"/>
<path d="M1193.56 -1C1105.99 31.3441 962.563 65.8013 749.412 102.372C105.324 212.875 -62.6005 292.317 -37.2517 370.821C-22.5608 416.357 57.162 461.623 146.696 512.46C236.86 563.656 336.94 620.504 390.681 688.995H390.163C336.436 620.611 236.479 563.821 146.416 512.682C56.8297 461.808 -22.9385 416.521 -37.6644 370.892C-63.0552 292.215 104.928 212.657 749.349 102.088C961.881 65.6262 1104.94 31.2613 1192.38 -1H1193.56Z" fill="black" fill-opacity="0.6"/>
<path d="M1169.23 -1C1078.67 28.481 942.97 59.9165 752.236 93.4129C100.26 207.868 -72.2042 286.37 -47.0897 362.073C-32.3323 406.559 50.6749 450.142 144.679 499.488C246.638 553.01 361.496 613.323 416.356 688.995H415.839C360.985 613.425 246.256 553.173 144.406 499.717C50.3461 450.341 -32.7136 406.738 -47.4989 362.147C-72.6589 286.261 99.8475 207.648 752.135 93.129C942.295 59.7437 1077.64 28.3982 1168.04 -1H1169.23Z" fill="black" fill-opacity="0.6"/>
<path d="M1141.4 -1C1050.56 25.7006 923.917 54.1476 755.031 84.4378C95.0313 202.818 -81.9033 280.566 -57.0477 353.664C-42.2658 397.139 43.8999 439.012 142.273 486.819C256.418 542.288 386.957 605.751 441.625 688.995H441.128C386.454 605.86 256.047 542.468 142.018 487.053C43.5711 439.215 -42.6436 397.311 -57.4604 353.737C-82.3755 280.467 94.6185 202.601 754.944 84.1633C923.249 53.9748 1049.55 25.6202 1140.2 -1H1141.4Z" fill="black" fill-opacity="0.6"/>
<path d="M1109.82 -1C1021.53 22.97 905.658 48.4284 757.853 75.4721C89.6613 197.738 -91.7227 274.889 -67.1224 345.555C-52.3406 388.026 36.8613 428.205 139.498 474.437C266.173 531.491 413.267 597.767 466.378 688.995H465.885C412.76 597.883 265.809 531.676 139.253 474.676C36.5465 428.413 -52.7148 388.208 -67.5352 345.63C-92.1949 274.79 89.2485 197.527 757.759 75.1929C905.011 48.2533 1020.5 22.899 1108.56 -1H1109.82Z" fill="black" fill-opacity="0.6"/>
<path d="M1075.84 -1C992.326 20.263 888.164 42.7376 760.667 66.5064C84.147 192.629 -101.644 269.324 -77.3132 337.718C-62.5524 379.21 29.5597 417.697 136.359 462.324C191.167 485.224 249.84 509.741 303.927 537.116C387.476 579.403 460.028 628.512 490.477 688.995H489.998C459.567 628.609 387.095 579.573 303.664 537.345C249.595 509.98 190.925 485.466 136.118 462.572C29.2449 417.917 -62.9336 379.399 -77.733 337.798C-102.12 269.225 83.7345 192.412 760.57 66.2319C887.541 42.5696 991.301 20.1778 1074.57 -1H1075.84Z" fill="black" fill-opacity="0.6"/>
<path d="M1039.65 -1C963.035 17.5489 871.535 37.0397 763.483 57.5408C78.5154 187.492 -111.662 263.855 -87.5969 330.122C-72.878 370.658 22.0288 407.47 132.882 450.469C199.632 476.36 272.163 504.493 336.456 537.04C419.107 578.871 488.147 627.989 513.912 688.995H513.437C487.675 628.086 418.729 579.041 336.205 537.272C271.918 504.732 199.397 476.604 132.658 450.717C21.7245 407.687 -73.2558 370.85 -88.0096 330.2C-112.145 263.758 78.1028 187.279 763.364 57.2663C870.912 36.8598 962.013 17.4567 1038.36 -1H1039.65Z" fill="black" fill-opacity="0.6"/>
</g>
<g filter="url(#filter0_d_2_50)">
<path d="M-8 -2H360L170 402H-36L-8 -2Z" fill="#293775"/>
</g>
<path d="M1080 -1H1748V402H895L1080 -1Z" fill="#293775"/>
<path d="M1919.5 -1.5H0.5V400.5H1919.5V-1.5Z" stroke="#DFDFDF"/>
</g>
</g>
<defs>
<filter id="filter0_d_2_50" x="-40" y="-6" width="404" height="412" filterUnits="userSpaceOnUse" color-interpolation-filters="sRGB">
<feFlood flood-opacity="0" result="BackgroundImageFix"/>
<feColorMatrix in="SourceAlpha" type="matrix" values="0 0 0 0 0 0 0 0 0 0 0 0 0 0 0 0 0 0 127 0" result="hardAlpha"/>
<feOffset/>
<feGaussianBlur stdDeviation="2"/>
<feComposite in2="hardAlpha" operator="out"/>
<feColorMatrix type="matrix" values="0 0 0 0 0 0 0 0 0 0 0 0 0 0 0 0 0 0 0.25 0"/>
<feBlend mode="normal" in2="BackgroundImageFix" result="effect1_dropShadow_2_50"/>
<feBlend mode="normal" in="SourceGraphic" in2="effect1_dropShadow_2_50" result="shape"/>
</filter>
</defs>
</svg>
