<svg width="1920" height="403" viewBox="0 0 1920 403" fill="none" xmlns="http://www.w3.org/2000/svg">
<mask id="mask0_1_45" style="mask-type:luminance" maskUnits="userSpaceOnUse" x="0" y="0" width="1920" height="403">
<path d="M1920 0H0V403H1920V0Z" fill="white"/>
</mask>
<g mask="url(#mask0_1_45)">
<path d="M1920 0H0V403H1920V0Z" fill="white"/>
<g opacity="0.5">
<path d="M1115.24 1C1111.81 180.056 1021.77 348.267 681.822 319.557C323.451 289.291 150.126 488.814 63.2398 690.995H62.813C149.734 488.682 323.175 288.971 681.895 319.273C1021.43 347.95 1111.38 179.911 1114.81 1H1115.24Z" fill="black"/>
<path d="M1101.95 1C1117.61 172.079 1040.32 331.367 684.64 310.592C296.688 287.93 134.22 489.198 61.0628 690.995H60.6326C133.832 489.065 296.387 287.625 684.71 310.308C1039.94 331.06 1117.16 171.947 1101.53 1H1101.95Z" fill="black"/>
<path d="M1091.2 1C1124.32 164.143 1057.63 314.744 687.463 301.626C269.031 286.797 118.921 489.607 59.9893 690.995H59.5626C118.512 489.472 268.705 286.499 687.502 301.34C1057.22 314.444 1123.84 163.998 1090.76 1H1091.2Z" fill="black"/>
<path d="M1083.1 1C1131.85 156.225 1073.58 298.42 690.292 292.66C240.421 285.895 104.243 490.026 60.0762 690.995H59.6635C103.845 489.893 240.092 285.609 690.324 292.374C1073.14 298.126 1131.36 156.079 1082.65 1H1083.1Z" fill="black"/>
<path d="M1077.77 1C1140.19 148.334 1088.08 282.417 693.1 283.695C210.804 285.254 90.3108 490.445 61.4116 690.995H60.9884C89.8945 490.31 210.451 284.97 693.118 283.408C1087.6 282.133 1139.64 148.197 1077.28 1H1077.77Z" fill="black"/>
<path d="M1075.17 1C1149.1 140.502 1100.99 266.764 695.917 274.729C180.133 284.871 77.2054 490.842 64.036 690.995H63.6128C76.7996 490.707 179.772 284.594 695.917 274.443C1100.48 266.492 1148.54 140.371 1074.67 1H1075.17Z" fill="black"/>
<path d="M1075.5 1C1158.64 132.745 1112.25 251.485 698.734 265.763C148.359 284.764 65.0969 491.2 68.0561 690.995H67.6328C64.6597 491.065 147.985 284.492 698.713 265.477C1111.71 251.218 1158.03 132.613 1074.97 1H1075.5Z" fill="black"/>
<path d="M1078.77 1C1168.63 125.083 1121.71 236.614 701.548 256.79C145.668 283.498 61.7795 470.656 71.2027 660.085C71.718 670.391 72.4876 680.694 73.5113 690.995H73.088C72.0853 680.71 71.317 670.413 70.783 660.104C61.3388 470.533 145.287 283.231 701.52 256.511C1121.13 236.356 1167.98 124.955 1078.23 1H1078.77Z" fill="black"/>
<path d="M1084.83 1C1178.73 117.533 1129.23 222.182 704.368 247.829C146.526 281.506 58.4327 450.349 72.1197 628.363C73.7217 649.186 76.7159 670.127 80.5145 690.995H80.0878C76.2926 670.135 73.302 649.198 71.693 628.387C57.9989 450.23 146.148 281.241 704.344 247.546C1128.62 221.933 1178.05 117.419 1084.25 1H1084.83Z" fill="black"/>
<path d="M1093.72 1C1188.84 110.126 1134.69 208.226 707.186 238.864C147.13 279.002 54.1854 432.548 71.1849 599.637C74.256 629.842 80.9229 660.492 89.0728 690.995H88.6391C80.4961 660.504 73.8327 629.866 70.7616 599.658C53.7446 432.427 146.759 278.742 707.155 238.57C1134.06 207.984 1188.13 110.006 1093.1 1H1093.72Z" fill="black"/>
<path d="M1105.29 1C1198.73 102.888 1137.98 194.776 709.999 229.898C147.291 276.075 49.1667 416.862 68.7161 573.729C73.5151 612.233 85.4007 651.709 99.2487 690.995H98.8115C84.974 651.716 73.0954 612.263 68.2963 573.765C48.7294 416.748 146.907 275.822 709.964 229.614C1137.34 194.542 1197.98 102.772 1104.64 1H1105.29Z" fill="black"/>
<path d="M1119.06 1C1207.82 95.8507 1138.95 181.873 712.82 220.932C146.953 272.798 43.5118 402.932 64.999 550.36C71.6798 596.173 90.4178 643.671 111.083 690.995H110.639C89.97 643.682 71.2461 596.209 64.5687 550.398C43.057 402.813 146.551 272.547 712.764 220.649C1138.28 181.648 1207.04 95.7371 1118.36 1H1119.06Z" fill="black"/>
<path d="M1134.94 1C1216.09 89.0478 1137.58 169.542 715.635 211.964C146.089 269.227 37.2954 390.447 60.2412 529.227C68.8844 581.479 96.192 636.229 124.622 690.995H124.168C95.7513 636.25 68.4646 581.521 59.8075 529.27C36.8477 390.332 145.711 268.981 715.586 211.683C1136.88 169.325 1215.28 88.9413 1134.2 1H1134.94Z" fill="black"/>
<path d="M1152.1 1C1222.8 82.5146 1133.7 157.822 718.448 202.999C144.715 265.418 30.5944 379.153 54.621 510.044C64.8312 565.651 99.9775 624.39 135.421 683.596L139.835 690.995H139.37L135.015 683.712C99.5752 624.492 64.4184 565.748 54.2153 510.089C30.1606 379.04 144.334 265.183 718.409 202.715C1132.99 157.612 1221.96 82.4104 1151.34 1H1152.1Z" fill="black"/>
<path d="M1170.01 1C1227.63 76.289 1127.33 146.739 721.263 194.033C142.861 261.4 23.4797 368.839 48.2794 492.546C59.3395 547.71 99.061 606.125 139.548 665.653C145.287 674.08 151.009 682.527 156.712 690.995H156.244C150.589 682.571 144.898 674.167 139.171 665.781C98.6692 606.227 58.9373 547.798 47.8771 492.596C23.0424 368.725 142.48 261.156 721.211 193.751C1126.6 146.536 1226.76 76.1872 1169.2 1H1170.01Z" fill="black"/>
<path d="M1187.81 1C1230.13 70.3994 1118.45 136.309 724.077 185.067C140.564 257.209 15.9921 359.336 41.3444 476.505C53.1391 531.021 97.3763 588.807 142.953 648.341C153.768 662.468 164.64 676.694 175.207 690.995H174.738C164.22 676.739 153.37 662.563 142.589 648.481C96.995 588.923 52.7403 531.116 40.9351 476.557C15.5478 359.223 140.179 256.97 724.024 184.786C1117.72 136.112 1229.22 70.3024 1186.96 1H1187.81Z" fill="black"/>
<path d="M1204.37 1C1229.64 64.8743 1107.17 126.536 726.891 176.102C137.855 252.874 8.18279 350.505 33.8954 461.723C46.3163 515.437 94.9817 572.357 145.658 631.619C162.375 651.167 179.308 670.972 195.23 691H194.744C178.856 671.022 161.969 651.268 145.295 631.771C94.5969 572.487 45.9105 515.555 33.4792 461.782C7.72807 350.401 137.466 252.642 726.828 175.825C1106.44 126.342 1228.72 64.7796 1203.49 1H1204.37Z" fill="black"/>
<path d="M1218.94 1C1226.1 59.7348 1093.64 117.419 729.709 167.134C134.789 248.412 0.0838766 342.235 26.0134 448.03C38.9554 500.856 91.9546 556.688 147.71 615.429C171.146 640.107 195.039 665.298 216.67 690.995H216.173C194.581 665.352 170.726 640.216 147.353 615.59C91.5734 556.825 38.5706 500.97 25.5972 448.087C-0.374341 342.129 134.38 248.18 729.642 166.854C1092.92 117.223 1225.16 59.6425 1218.03 1H1218.94Z" fill="black"/>
<path d="M1230.24 1C1219.05 54.9786 1078.11 108.915 732.522 158.168C131.366 243.847 -8.27785 334.446 17.7566 435.278C31.1463 487.139 88.35 541.726 149.146 599.744C180.056 629.236 211.89 659.628 239.373 690.995H238.872C211.425 659.69 179.651 629.36 148.796 599.914C87.9722 541.87 30.7476 487.262 17.3369 435.34C-8.73956 334.337 130.971 243.613 732.449 157.882C1077.38 108.728 1218.12 54.8887 1229.39 1H1230.24Z" fill="black"/>
<path d="M1237.41 1C1208.32 50.6082 1060.89 100.995 735.341 149.202C127.658 239.186 -16.8653 327.051 9.1831 423.348C22.9366 474.189 84.2223 527.405 150.006 584.526C189.157 618.524 229.9 653.904 263.168 690.995H262.668C229.438 653.971 188.759 618.65 149.667 584.709C83.855 527.562 22.5379 474.319 8.76685 423.412C-17.327 326.945 127.253 238.956 735.268 148.928C1060.16 100.813 1207.22 50.5183 1236.32 1H1237.41Z" fill="black"/>
<path d="M1239.33 1C1193.69 46.5974 1042.33 93.6004 738.15 140.237C123.65 234.448 -25.6695 319.997 0.323013 412.134C14.3738 461.927 79.612 513.672 150.314 569.744C198.423 607.905 249.047 648.067 287.814 690.995H287.303C248.575 648.14 198.028 608.037 149.989 569.936C79.2482 513.833 13.975 462.062 -0.0932302 412.198C-26.1347 319.893 123.244 234.219 738.073 139.957C1041.61 93.4206 1192.65 46.5122 1238.29 1H1239.33Z" fill="black"/>
<path d="M1236.56 1C1176.22 42.9108 1022.81 86.6579 740.967 131.269C119.401 229.638 -34.6611 313.232 -8.7771 401.543C5.50807 450.273 74.5694 500.468 150.112 555.372C207.855 597.34 269.357 642.064 313.111 690.995H312.597C268.874 642.142 207.459 597.482 149.794 555.573C74.2126 500.636 5.1163 450.415 -9.18986 401.604C-35.1298 313.131 118.988 229.413 740.887 130.992C1022.1 86.4875 1175.14 42.828 1235.44 1H1236.56Z" fill="black"/>
<path d="M1227.66 1C1155.25 39.5105 1002.78 80.1034 743.78 122.303C114.928 224.77 -43.8213 306.718 -18.0912 391.503C-3.62415 439.164 69.1239 487.752 149.42 541.383C217.415 586.798 290.81 635.834 338.849 690.995H338.331C290.32 635.916 217.03 586.947 149.119 541.589C68.7741 487.927 -4.01591 439.313 -18.5039 391.569C-44.2865 306.621 114.501 224.541 743.696 122.024C1002.07 79.9259 1154.28 39.4254 1226.6 1H1227.66Z" fill="black"/>
<path d="M1213.46 1C1131.88 36.3374 982.57 73.8423 746.596 113.337C110.213 219.846 -53.143 300.426 -27.5947 381.948C-12.9948 428.542 63.3071 475.483 148.27 527.751C227.097 576.245 313.347 629.329 364.768 690.995H364.254C312.836 629.419 226.709 576.401 147.979 527.961C62.9818 475.668 -13.3795 428.693 -28.0075 382.012C-53.6047 300.329 109.804 219.624 746.508 113.06C981.881 73.6672 1130.81 36.257 1212.28 1H1213.46Z" fill="black"/>
<path d="M1193.56 1C1105.99 33.3441 962.563 67.8013 749.412 104.372C105.324 214.875 -62.6005 294.317 -37.2517 372.821C-22.5608 418.357 57.162 463.623 146.696 514.46C236.86 565.656 336.94 622.504 390.681 690.995H390.163C336.436 622.611 236.479 565.821 146.416 514.682C56.8297 463.808 -22.9385 418.521 -37.6644 372.892C-63.0552 294.215 104.928 214.657 749.349 104.088C961.881 67.6262 1104.94 33.2613 1192.38 1H1193.56Z" fill="black"/>
<path d="M1169.23 1C1078.67 30.481 942.97 61.9165 752.236 95.4129C100.26 209.868 -72.2042 288.37 -47.0897 364.073C-32.3323 408.559 50.6749 452.142 144.679 501.488C246.638 555.01 361.496 615.323 416.356 690.995H415.839C360.985 615.425 246.256 555.173 144.406 501.717C50.3461 452.341 -32.7136 408.738 -47.4989 364.147C-72.6589 288.261 99.8475 209.648 752.135 95.129C942.295 61.7437 1077.64 30.3982 1168.04 1H1169.23Z" fill="black"/>
<path d="M1141.4 1C1050.56 27.7006 923.917 56.1476 755.031 86.4378C95.0313 204.818 -81.9033 282.566 -57.0477 355.664C-42.2658 399.139 43.8999 441.012 142.273 488.819C256.418 544.288 386.957 607.751 441.625 690.995H441.128C386.454 607.86 256.047 544.468 142.018 489.053C43.5711 441.215 -42.6436 399.311 -57.4604 355.737C-82.3755 282.467 94.6185 204.601 754.944 86.1633C923.249 55.9748 1049.55 27.6202 1140.2 1H1141.4Z" fill="black"/>
<path d="M1109.82 1C1021.53 24.97 905.658 50.4284 757.853 77.4721C89.6613 199.738 -91.7227 276.889 -67.1224 347.555C-52.3406 390.026 36.8613 430.205 139.498 476.437C266.173 533.491 413.267 599.767 466.378 690.995H465.885C412.76 599.883 265.809 533.676 139.253 476.676C36.5465 430.413 -52.7148 390.208 -67.5352 347.63C-92.1949 276.79 89.2485 199.527 757.759 77.1929C905.011 50.2533 1020.5 24.899 1108.56 1H1109.82Z" fill="black"/>
<path d="M1075.84 1C992.326 22.263 888.164 44.7376 760.667 68.5064C84.147 194.629 -101.644 271.324 -77.3132 339.718C-62.5524 381.21 29.5597 419.697 136.359 464.324C191.167 487.224 249.84 511.741 303.927 539.116C387.476 581.403 460.028 630.512 490.477 690.995H489.998C459.567 630.609 387.095 581.573 303.664 539.345C249.595 511.98 190.925 487.466 136.118 464.572C29.2449 419.917 -62.9336 381.399 -77.733 339.798C-102.12 271.225 83.7344 194.412 760.57 68.2319C887.541 44.5696 991.301 22.1778 1074.57 1H1075.84Z" fill="black"/>
<path d="M1039.65 1C963.035 19.5489 871.535 39.0397 763.483 59.5408C78.5154 189.492 -111.662 265.855 -87.5969 332.122C-72.878 372.658 22.0288 409.47 132.882 452.469C199.632 478.36 272.163 506.493 336.456 539.04C419.107 580.871 488.147 629.989 513.912 690.995H513.437C487.675 630.086 418.729 581.041 336.205 539.272C271.918 506.732 199.397 478.604 132.658 452.717C21.7245 409.687 -73.2558 372.85 -88.0096 332.2C-112.145 265.758 78.1028 189.279 763.364 59.2663C870.912 38.8598 962.013 19.4567 1038.36 1H1039.65Z" fill="black"/>
</g>
<g filter="url(#filter0_d_1_45)">
<path d="M-8 0H360L170 404H-36L-8 0Z" fill="#293775"/>
</g>
<path d="M1080 1H1748V404H895L1080 1Z" fill="#293775"/>
<g filter="url(#filter1_d_1_45)">
<path d="M1529 -5L3502 85.9928V621L1243 607.662L1529 -5Z" fill="white"/>
</g>
<path d="M1919.5 0.5H0.5V402.5H1919.5V0.5Z" stroke="#DFDFDF"/>
</g>
<defs>
<filter id="filter0_d_1_45" x="-40" y="-4" width="404" height="412" filterUnits="userSpaceOnUse" color-interpolation-filters="sRGB">
<feFlood flood-opacity="0" result="BackgroundImageFix"/>
<feColorMatrix in="SourceAlpha" type="matrix" values="0 0 0 0 0 0 0 0 0 0 0 0 0 0 0 0 0 0 127 0" result="hardAlpha"/>
<feOffset/>
<feGaussianBlur stdDeviation="2"/>
<feComposite in2="hardAlpha" operator="out"/>
<feColorMatrix type="matrix" values="0 0 0 0 0 0 0 0 0 0 0 0 0 0 0 0 0 0 0.25 0"/>
<feBlend mode="normal" in2="BackgroundImageFix" result="effect1_dropShadow_1_45"/>
<feBlend mode="normal" in="SourceGraphic" in2="effect1_dropShadow_1_45" result="shape"/>
</filter>
<filter id="filter1_d_1_45" x="1239" y="-9" width="2267" height="634" filterUnits="userSpaceOnUse" color-interpolation-filters="sRGB">
<feFlood flood-opacity="0" result="BackgroundImageFix"/>
<feColorMatrix in="SourceAlpha" type="matrix" values="0 0 0 0 0 0 0 0 0 0 0 0 0 0 0 0 0 0 127 0" result="hardAlpha"/>
<feOffset/>
<feGaussianBlur stdDeviation="2"/>
<feComposite in2="hardAlpha" operator="out"/>
<feColorMatrix type="matrix" values="0 0 0 0 0 0 0 0 0 0 0 0 0 0 0 0 0 0 0.25 0"/>
<feBlend mode="normal" in2="BackgroundImageFix" result="effect1_dropShadow_1_45"/>
<feBlend mode="normal" in="SourceGraphic" in2="effect1_dropShadow_1_45" result="shape"/>
</filter>
</defs>
</svg>
