<svg width="448" height="400" viewBox="0 0 448 400" fill="none" xmlns="http://www.w3.org/2000/svg">
<mask id="mask0_2_50" style="mask-type:alpha" maskUnits="userSpaceOnUse" x="0" y="0" width="448" height="400">
<rect width="448" height="400" fill="#D9D9D9"/>
</mask>
<g mask="url(#mask0_2_50)">
<mask id="mask1_2_50" style="mask-type:luminance" maskUnits="userSpaceOnUse" x="-1080" y="-2" width="1920" height="403">
<path d="M840 -2H-1080V401H840V-2Z" fill="white"/>
</mask>
<g mask="url(#mask1_2_50)">
<path d="M840 -2H-1080V401H840V-2Z" fill="white"/>
<g opacity="0.5">
<path d="M35.24 -1C31.8099 178.056 -58.23 346.267 -398.178 317.557C-756.549 287.291 -929.874 486.814 -1016.76 688.995H-1017.19C-930.266 486.682 -756.825 286.971 -398.105 317.273C-58.5699 345.95 31.38 177.911 34.8101 -1H35.24Z" fill="black" fill-opacity="0.6"/>
<path d="M21.95 -1C37.61 170.079 -39.68 329.367 -395.36 308.592C-783.312 285.93 -945.78 487.198 -1018.94 688.995H-1019.37C-946.168 487.065 -783.613 285.625 -395.29 308.308C-40.0601 329.06 37.16 169.947 21.53 -1H21.95Z" fill="black" fill-opacity="0.6"/>
<path d="M11.2 -1C44.3199 162.143 -22.37 312.744 -392.537 299.626C-810.969 284.797 -961.079 487.607 -1020.01 688.995H-1020.44C-961.488 487.472 -811.295 284.499 -392.498 299.34C-22.78 312.444 43.84 161.998 10.76 -1H11.2Z" fill="black" fill-opacity="0.6"/>
<path d="M3.10004 -1C51.8501 154.225 -6.41992 296.42 -389.708 290.66C-839.579 283.895 -975.757 488.026 -1019.92 688.995H-1020.34C-976.155 487.893 -839.908 283.609 -389.676 290.374C-6.85999 296.126 51.3601 154.079 2.65009 -1H3.10004Z" fill="black" fill-opacity="0.6"/>
<path d="M-2.22998 -1C60.1901 146.334 8.07996 280.417 -386.9 281.695C-869.196 283.254 -989.689 488.445 -1018.59 688.995H-1019.01C-990.105 488.31 -869.549 282.97 -386.882 281.408C7.59998 280.133 59.64 146.197 -2.71997 -1H-2.22998Z" fill="black" fill-opacity="0.6"/>
<path d="M-4.82996 -1C69.1001 138.502 20.99 264.764 -384.083 272.729C-899.867 282.871 -1002.79 488.842 -1015.96 688.995H-1016.39C-1003.2 488.707 -900.228 282.594 -384.083 272.443C20.48 264.492 68.54 138.371 -5.32996 -1H-4.82996Z" fill="black" fill-opacity="0.6"/>
<path d="M-4.49994 -1C78.64 130.745 32.25 249.485 -381.266 263.763C-931.641 282.764 -1014.9 489.2 -1011.94 688.995H-1012.37C-1015.34 489.065 -932.015 282.492 -381.287 263.477C31.7101 249.218 78.03 130.613 -5.02997 -1H-4.49994Z" fill="black" fill-opacity="0.6"/>
<path d="M-1.23004 -1C88.63 123.083 41.71 234.614 -378.452 254.79C-934.332 281.498 -1018.22 468.656 -1008.8 658.085C-1008.28 668.391 -1007.51 678.694 -1006.49 688.995H-1006.91C-1007.91 678.71 -1008.68 668.413 -1009.22 658.104C-1018.66 468.533 -934.713 281.231 -378.48 254.511C41.1299 234.356 87.98 122.955 -1.77008 -1H-1.23004Z" fill="black" fill-opacity="0.6"/>
<path d="M4.82996 -1C98.73 115.533 49.23 220.182 -375.632 245.829C-933.474 279.506 -1021.57 448.349 -1007.88 626.363C-1006.28 647.186 -1003.28 668.127 -999.486 688.995H-999.912C-1003.71 668.135 -1006.7 647.198 -1008.31 626.387C-1022 448.23 -933.852 279.241 -375.656 245.546C48.62 219.933 98.05 115.419 4.25 -1H4.82996Z" fill="black" fill-opacity="0.6"/>
<path d="M13.72 -1C108.84 108.126 54.6899 206.226 -372.814 236.864C-932.87 277.002 -1025.81 430.548 -1008.82 597.637C-1005.74 627.842 -999.077 658.492 -990.927 688.995H-991.361C-999.504 658.504 -1006.17 627.866 -1009.24 597.658C-1026.26 430.427 -933.241 276.742 -372.845 236.57C54.0601 205.984 108.13 108.006 13.1 -1H13.72Z" fill="black" fill-opacity="0.6"/>
<path d="M25.29 -1C118.73 100.888 57.98 192.776 -370.001 227.898C-932.709 274.075 -1030.83 414.862 -1011.28 571.729C-1006.48 610.233 -994.599 649.709 -980.751 688.995H-981.189C-995.026 649.716 -1006.9 610.263 -1011.7 571.765C-1031.27 414.748 -933.093 273.822 -370.036 227.614C57.34 192.542 117.98 100.772 24.64 -1H25.29Z" fill="black" fill-opacity="0.6"/>
<path d="M39.0601 -1C127.82 93.8507 58.95 179.873 -367.18 218.932C-933.047 270.798 -1036.49 400.932 -1015 548.36C-1008.32 594.173 -989.582 641.671 -968.917 688.995H-969.361C-990.03 641.682 -1008.75 594.209 -1015.43 548.398C-1036.94 400.813 -933.449 270.547 -367.236 218.649C58.28 179.648 127.04 93.7371 38.36 -1H39.0601Z" fill="black" fill-opacity="0.6"/>
<path d="M54.9399 -1C136.09 87.0478 57.5801 167.542 -364.365 209.964C-933.911 267.227 -1042.7 388.447 -1019.76 527.227C-1011.12 579.479 -983.808 634.229 -955.378 688.995H-955.832C-984.249 634.25 -1011.54 579.521 -1020.19 527.27C-1043.15 388.332 -934.289 266.981 -364.414 209.683C56.88 167.325 135.28 86.9413 54.2 -1H54.9399Z" fill="black" fill-opacity="0.6"/>
<path d="M72.1 -1C142.8 80.5146 53.7 155.822 -361.552 200.999C-935.285 263.418 -1049.41 377.153 -1025.38 508.044C-1015.17 563.651 -980.023 622.39 -944.579 681.596L-940.165 688.995H-940.63L-944.985 681.712C-980.425 622.492 -1015.58 563.748 -1025.78 508.089C-1049.84 377.04 -935.666 263.183 -361.591 200.715C52.99 155.612 141.96 80.4104 71.34 -1H72.1Z" fill="black" fill-opacity="0.6"/>
<path d="M90.01 -1C147.63 74.289 47.33 144.739 -358.737 192.033C-937.139 259.4 -1056.52 366.839 -1031.72 490.546C-1020.66 545.71 -980.939 604.125 -940.452 663.653C-934.713 672.08 -928.991 680.527 -923.288 688.995H-923.756C-929.411 680.571 -935.102 672.167 -940.829 663.781C-981.331 604.227 -1021.06 545.798 -1032.12 490.596C-1056.96 366.725 -937.52 259.156 -358.789 191.751C46.6 144.536 146.76 74.1872 89.2 -1H90.01Z" fill="black" fill-opacity="0.6"/>
<path d="M107.81 -1C150.13 68.3994 38.4501 134.309 -355.923 183.067C-939.436 255.209 -1064.01 357.336 -1038.66 474.505C-1026.86 529.021 -982.624 586.807 -937.047 646.341C-926.232 660.468 -915.36 674.694 -904.793 688.995H-905.262C-915.78 674.739 -926.63 660.563 -937.411 646.481C-983.005 586.923 -1027.26 529.116 -1039.06 474.557C-1064.45 357.223 -939.821 254.97 -355.976 182.786C37.72 134.112 149.22 68.3024 106.96 -1H107.81Z" fill="black" fill-opacity="0.6"/>
<path d="M124.37 -1C149.64 62.8743 27.1699 124.536 -353.109 174.102C-942.145 250.874 -1071.82 348.505 -1046.1 459.723C-1033.68 513.437 -985.018 570.357 -934.342 629.619C-917.625 649.167 -900.692 668.972 -884.77 689H-885.256C-901.144 669.022 -918.031 649.268 -934.705 629.771C-985.403 570.487 -1034.09 513.555 -1046.52 459.782C-1072.27 348.401 -942.534 250.642 -353.172 173.825C26.4399 124.342 148.72 62.7796 123.49 -1H124.37Z" fill="black" fill-opacity="0.6"/>
<path d="M138.94 -1C146.1 57.7348 13.6399 115.419 -350.291 165.134C-945.211 246.412 -1079.92 340.235 -1053.99 446.03C-1041.04 498.856 -988.045 554.688 -932.29 613.429C-908.854 638.107 -884.961 663.298 -863.33 688.995H-863.827C-885.419 663.352 -909.274 638.216 -932.647 613.59C-988.427 554.825 -1041.43 498.97 -1054.4 446.087C-1080.37 340.129 -945.62 246.18 -350.358 164.854C12.92 115.223 145.16 57.6425 138.03 -1H138.94Z" fill="black" fill-opacity="0.6"/>
<path d="M150.24 -1C139.05 52.9786 -1.89001 106.915 -347.478 156.168C-948.634 241.847 -1088.28 332.446 -1062.24 433.278C-1048.85 485.139 -991.65 539.726 -930.854 597.744C-899.944 627.236 -868.11 657.628 -840.627 688.995H-841.128C-868.575 657.69 -900.349 627.36 -931.204 597.914C-992.028 539.87 -1049.25 485.262 -1062.66 433.34C-1088.74 332.337 -949.029 241.613 -347.551 155.882C-2.62 106.728 138.12 52.8887 149.39 -1H150.24Z" fill="black" fill-opacity="0.6"/>
<path d="M157.41 -1C128.32 48.6082 -19.11 98.995 -344.659 147.202C-952.342 237.186 -1096.87 325.051 -1070.82 421.348C-1057.06 472.189 -995.778 525.405 -929.994 582.526C-890.843 616.524 -850.1 651.904 -816.832 688.995H-817.332C-850.562 651.971 -891.241 616.65 -930.333 582.709C-996.145 525.562 -1057.46 472.319 -1071.23 421.412C-1097.33 324.945 -952.747 236.956 -344.732 146.928C-19.84 98.813 127.22 48.5183 156.32 -1H157.41Z" fill="black" fill-opacity="0.6"/>
<path d="M159.33 -1C113.69 44.5974 -37.6699 91.6004 -341.85 138.237C-956.35 232.448 -1105.67 317.997 -1079.68 410.134C-1065.63 459.927 -1000.39 511.672 -929.686 567.744C-881.577 605.905 -830.953 646.067 -792.186 688.995H-792.697C-831.425 646.14 -881.972 606.037 -930.011 567.936C-1000.75 511.833 -1066.02 460.062 -1080.09 410.198C-1106.13 317.893 -956.756 232.219 -341.927 137.957C-38.39 91.4206 112.65 44.5122 158.29 -1H159.33Z" fill="black" fill-opacity="0.6"/>
<path d="M156.56 -1C96.2201 40.9108 -57.1901 84.6579 -339.033 129.269C-960.599 227.638 -1114.66 311.232 -1088.78 399.543C-1074.49 448.273 -1005.43 498.468 -929.888 553.372C-872.145 595.34 -810.643 640.064 -766.889 688.995H-767.403C-811.126 640.142 -872.541 595.482 -930.206 553.573C-1005.79 498.636 -1074.88 448.415 -1089.19 399.604C-1115.13 311.131 -961.012 227.413 -339.113 128.992C-57.9 84.4875 95.1399 40.828 155.44 -1H156.56Z" fill="black" fill-opacity="0.6"/>
<path d="M147.66 -1C75.25 37.5105 -77.22 78.1034 -336.22 120.303C-965.072 222.77 -1123.82 304.718 -1098.09 389.503C-1083.62 437.164 -1010.88 485.752 -930.58 539.383C-862.585 584.798 -789.19 633.834 -741.151 688.995H-741.669C-789.68 633.916 -862.97 584.947 -930.881 539.589C-1011.23 485.927 -1084.02 437.313 -1098.5 389.569C-1124.29 304.621 -965.499 222.541 -336.304 120.024C-77.9301 77.9259 74.28 37.4254 146.6 -1H147.66Z" fill="black" fill-opacity="0.6"/>
<path d="M133.46 -1C51.88 34.3374 -97.4301 71.8423 -333.404 111.337C-969.787 217.846 -1133.14 298.426 -1107.59 379.948C-1092.99 426.542 -1016.69 473.483 -931.73 525.751C-852.903 574.245 -766.653 627.329 -715.232 688.995H-715.746C-767.164 627.419 -853.291 574.401 -932.021 525.961C-1017.02 473.668 -1093.38 426.693 -1108.01 380.012C-1133.6 298.329 -970.196 217.624 -333.492 111.06C-98.1191 71.6672 50.8101 34.257 132.28 -1H133.46Z" fill="black" fill-opacity="0.6"/>
<path d="M113.56 -1C25.9901 31.3441 -117.437 65.8013 -330.588 102.372C-974.676 212.875 -1142.6 292.317 -1117.25 370.821C-1102.56 416.357 -1022.84 461.623 -933.304 512.46C-843.14 563.656 -743.06 620.504 -689.319 688.995H-689.837C-743.564 620.611 -843.521 563.821 -933.584 512.682C-1023.17 461.808 -1102.94 416.521 -1117.66 370.892C-1143.06 292.215 -975.072 212.657 -330.651 102.088C-118.119 65.6262 24.9401 31.2613 112.38 -1H113.56Z" fill="black" fill-opacity="0.6"/>
<path d="M89.23 -1C-1.32996 28.481 -137.03 59.9165 -327.764 93.4129C-979.74 207.868 -1152.2 286.37 -1127.09 362.073C-1112.33 406.559 -1029.33 450.142 -935.321 499.488C-833.362 553.01 -718.504 613.323 -663.644 688.995H-664.161C-719.015 613.425 -833.744 553.173 -935.594 499.717C-1029.65 450.341 -1112.71 406.738 -1127.5 362.147C-1152.66 286.261 -980.153 207.648 -327.865 93.129C-137.705 59.7437 -2.35999 28.3982 88.04 -1H89.23Z" fill="black" fill-opacity="0.6"/>
<path d="M61.4 -1C-29.4399 25.7006 -156.083 54.1476 -324.969 84.4378C-984.969 202.818 -1161.9 280.566 -1137.05 353.664C-1122.27 397.139 -1036.1 439.012 -937.727 486.819C-823.582 542.288 -693.043 605.751 -638.375 688.995H-638.872C-693.546 605.86 -823.953 542.468 -937.982 487.053C-1036.43 439.215 -1122.64 397.311 -1137.46 353.737C-1162.38 280.467 -985.382 202.601 -325.056 84.1633C-156.751 53.9748 -30.4501 25.6202 60.2 -1H61.4Z" fill="black" fill-opacity="0.6"/>
<path d="M29.8199 -1C-58.4701 22.97 -174.342 48.4284 -322.147 75.4721C-990.339 197.738 -1171.72 274.889 -1147.12 345.555C-1132.34 388.026 -1043.14 428.205 -940.502 474.437C-813.827 531.491 -666.733 597.767 -613.622 688.995H-614.115C-667.24 597.883 -814.191 531.676 -940.747 474.676C-1043.45 428.413 -1132.71 388.208 -1147.54 345.63C-1172.19 274.79 -990.752 197.527 -322.241 75.1929C-174.989 48.2533 -59.4999 22.899 28.5601 -1H29.8199Z" fill="black" fill-opacity="0.6"/>
</g>
<path d="M0 -1H668V402H-185L0 -1Z" fill="#293775"/>
<g filter="url(#filter0_d_2_50)">
<path d="M449 -7L2422 83.9928V619L163 605.662L449 -7Z" fill="white"/>
</g>
<path d="M839.5 -1.5H-1079.5V400.5H839.5V-1.5Z" stroke="#DFDFDF"/>
</g>
</g>
<defs>
<filter id="filter0_d_2_50" x="159" y="-11" width="2267" height="634" filterUnits="userSpaceOnUse" color-interpolation-filters="sRGB">
<feFlood flood-opacity="0" result="BackgroundImageFix"/>
<feColorMatrix in="SourceAlpha" type="matrix" values="0 0 0 0 0 0 0 0 0 0 0 0 0 0 0 0 0 0 127 0" result="hardAlpha"/>
<feOffset/>
<feGaussianBlur stdDeviation="2"/>
<feComposite in2="hardAlpha" operator="out"/>
<feColorMatrix type="matrix" values="0 0 0 0 0 0 0 0 0 0 0 0 0 0 0 0 0 0 0.25 0"/>
<feBlend mode="normal" in2="BackgroundImageFix" result="effect1_dropShadow_2_50"/>
<feBlend mode="normal" in="SourceGraphic" in2="effect1_dropShadow_2_50" result="shape"/>
</filter>
</defs>
</svg>
